<?xml version="1.0" encoding="UTF-8"?>
<svg id="Layer_2" xmlns="http://www.w3.org/2000/svg" viewBox="0 0 539.5 539.5">
  <defs>
    <style>
      .cls-1 {
        fill: none;
        stroke: #000;
        stroke-miterlimit: 10;
        stroke-width: 35px;
      }
    </style>
  </defs>
  <g id="Layer_1-2" data-name="Layer_1">
    <path d="M337.44,213.91c-30.83-30.83-76.85-30.83-107.68,0s-30.83,80.79,0,111.62c30.83,30.83,76.85,30.83,107.68,0,6.17-6.17,16.18-6.17,22.34,0,6.17,6.17,6.17,16.18,0,22.34-43.16,43.16-109.16,43.16-152.32,0-43.16-43.16-43.16-113.1,0-156.26s109.16-43.16,152.32,0c6.17,6.17,6.17,16.18,0,22.34-6.17,6.17-16.18,6.17-22.34,0v-.05Z"/>
    <circle class="cls-1" cx="269.75" cy="269.75" r="252.25"/>
  </g>
</svg>